<?xml version="1.0" encoding="utf-8"?>
<!-- Generator: Adobe Illustrator 19.0.0, SVG Export Plug-In . SVG Version: 6.00 Build 0)  -->
<svg version="1.1" id="Layer_1" xmlns="http://www.w3.org/2000/svg" xmlns:xlink="http://www.w3.org/1999/xlink" x="0px" y="0px"
	 viewBox="0 0 87 87" style="enable-background:new 0 0 87 87;" xml:space="preserve">
<path id="XMLID_109_" d="M24.4,2.3c-3.6,0-6.4,2.9-6.4,6.4c0,3.6,2.9,6.4,6.4,6.4c3.6,0,6.4-2.9,6.4-6.4C30.8,5.2,27.9,2.3,24.4,2.3
	z M24.4,12.4c-2,0-3.6-1.6-3.6-3.6c0-2,1.6-3.6,3.6-3.6c2,0,3.6,1.6,3.6,3.6C28,10.7,26.4,12.4,24.4,12.4z"/>
<path id="XMLID_110_" d="M63.9,9.9c-3.6,0-6.4,2.9-6.4,6.4s2.9,6.4,6.4,6.4c3.6,0,6.4-2.9,6.4-6.4S67.5,9.9,63.9,9.9z M63.9,20
	c-2,0-3.6-1.6-3.6-3.6s1.6-3.6,3.6-3.6c2,0,3.6,1.6,3.6,3.6S65.9,20,63.9,20z"/>
<path id="XMLID_111_" d="M79.2,59.8c-3.6,0-6.4,2.9-6.4,6.4c0,3.6,2.9,6.4,6.4,6.4s6.4-2.9,6.4-6.4C85.6,62.7,82.7,59.8,79.2,59.8z
	 M79.2,69.9c-2,0-3.6-1.6-3.6-3.6c0-2,1.6-3.6,3.6-3.6s3.6,1.6,3.6,3.6C82.8,68.3,81.2,69.9,79.2,69.9z"/>
<path id="XMLID_112_" d="M39,72.7c-3.6,0-6.4,2.9-6.4,6.4c0,3.6,2.9,6.4,6.4,6.4c3.6,0,6.4-2.9,6.4-6.4C45.5,75.6,42.6,72.7,39,72.7
	z M39,82.8c-2,0-3.6-1.6-3.6-3.6s1.6-3.6,3.6-3.6s3.6,1.6,3.6,3.6S41,82.8,39,82.8z"/>
<path id="XMLID_113_" d="M9.1,45.7c-3.6,0-6.4,2.9-6.4,6.4s2.9,6.4,6.4,6.4c3.6,0,6.4-2.9,6.4-6.4S12.7,45.7,9.1,45.7z M9.1,55.8
	c-2,0-3.6-1.6-3.6-3.6s1.6-3.6,3.6-3.6s3.6,1.6,3.6,3.6S11.1,55.8,9.1,55.8z"/>
<path id="XMLID_103_" style="fill:#010101;" d="M60.9,41.9v4.5c0,0.6-0.2,1.2-0.7,1.6c-0.4,0.4-1,0.7-1.6,0.7h-9.7v9.7
	c0,0.6-0.2,1.2-0.7,1.6c-0.4,0.4-1,0.7-1.6,0.7h-4.5c-0.6,0-1.2-0.2-1.6-0.7c-0.4-0.4-0.7-1-0.7-1.6v-9.7h-9.7
	c-0.6,0-1.2-0.2-1.6-0.7c-0.4-0.4-0.7-1-0.7-1.6v-4.5c0-0.6,0.2-1.2,0.7-1.6c0.4-0.4,1-0.7,1.6-0.7h9.7v-9.7c0-0.6,0.2-1.2,0.7-1.6
	c0.4-0.4,1-0.7,1.6-0.7h4.5c0.6,0,1.2,0.2,1.6,0.7c0.4,0.4,0.7,1,0.7,1.6v9.7h9.7c0.6,0,1.2,0.2,1.6,0.7
	C60.7,40.7,60.9,41.3,60.9,41.9z"/>
<g id="XMLID_106_">
	<line id="XMLID_104_" x1="22.4" y1="13.5" x2="10.9" y2="46.9"/>
	
		<rect id="XMLID_105_" x="14.7" y="12.5" transform="matrix(0.9455 0.3257 -0.3257 0.9455 10.7421 -3.7892)" width="4" height="35.3"/>
</g>
<g id="XMLID_123_">
	<line id="XMLID_8_" x1="12.7" y1="55.8" x2="34.2" y2="76.3"/>
	<rect id="XMLID_122_" x="8.6" y="64" transform="matrix(0.7229 0.6909 -0.6909 0.7229 52.1121 2.0746)" width="29.7" height="4"/>
</g>
<g id="XMLID_121_">
	<line id="XMLID_10_" x1="43.5" y1="77.3" x2="74.3" y2="68.3"/>
	
		<rect id="XMLID_120_" x="56.9" y="56.7" transform="matrix(0.2803 0.9599 -0.9599 0.2803 112.2371 -4.1819)" width="4" height="32.1"/>
</g>
<g id="XMLID_119_">
	<line id="XMLID_114_" x1="77.8" y1="61.8" x2="65.6" y2="21.4"/>
	
		<rect id="XMLID_118_" x="50.6" y="39.6" transform="matrix(0.2903 0.9569 -0.9569 0.2903 90.653 -39.1022)" width="42.2" height="4"/>
</g>
<g id="XMLID_117_">
	<line id="XMLID_115_" x1="58.9" y1="15.2" x2="28.6" y2="11"/>
	
		<rect id="XMLID_116_" x="28.4" y="11.1" transform="matrix(0.9906 0.1366 -0.1366 0.9906 2.1981 -5.8497)" width="30.6" height="4"/>
</g>
</svg>
